# xmcd
#
# Track frame offsets:
#	150
#	21700
#	50757
#	64052
#	86132
#	107890
#	128690
#	146050
#	159662
#
# Disc length: 2409 seconds
#
# Revision: 2
# Processed by: cddbd v1.5PL3 Copyright (c) Steve Scherf et al.
# Submitted via: audiograbber 1.82.02
#
DISCID=87096709
DTITLE=Jimmy Johnson - North // South
DYEAR=1982
DGENRE=Blues
TTITLE0=Country Preacher
TTITLE1=Can't Go No Further
TTITLE2=Track To Run
TTITLE3=Walking On Thin Ice
TTITLE4=Talking 'Bout Chicago
TTITLE5=A Woman Ain't Supposed To Be Hard
TTITLE6=I Can't Survive
TTITLE7=Sang A Song In Heaven
TTITLE8=Dead Or Alive
EXTD=Delmark Records\n ID3G:   0
EXTT0=
EXTT1=
EXTT2=
EXTT3=
EXTT4=
EXTT5=
EXTT6=
EXTT7=
EXTT8=
PLAYORDER=
